<svg width="23" height="23" viewBox="0 0 23 23" fill="none" xmlns="http://www.w3.org/2000/svg">
<g clip-path="url(#clip0_133_512)">
<path d="M8.63172 5.7567C8.63172 5.2277 9.06105 4.79836 9.59005 4.79836C10.1191 4.79836 10.5484 5.2277 10.5484 5.7567C10.5484 6.2857 10.1191 6.71503 9.59005 6.71503C9.06105 6.71503 8.63172 6.2857 8.63172 5.7567ZM14.3788 9.57661C14.9059 9.57661 15.3333 9.1492 15.3333 8.62211C15.3333 8.09503 14.9059 7.66761 14.3788 7.66761C13.8518 7.66761 13.4243 8.09503 13.4243 8.62211C13.4243 9.1492 13.8518 9.57661 14.3788 9.57661ZM22.8697 14.8714C22.2151 17.1139 21.0297 19.136 19.4398 20.7201C17.9793 22.1749 15.9122 23.0086 13.7713 23.0086H9.2441C7.10222 23.0086 5.03605 22.1749 3.57651 20.7201C1.98664 19.1369 0.800219 17.1139 0.145677 14.8704C-0.157156 13.8364 0.0393024 12.7497 0.684261 11.89C1.07526 11.3677 1.59372 10.9825 2.18118 10.7621C2.01059 10.3509 1.9253 9.91395 1.9253 9.45586C1.9253 8.2177 2.53959 7.05236 3.56789 6.33936C3.74039 6.22436 3.84101 6.15632 3.84101 5.75765C3.84101 3.64357 5.56026 1.92432 7.67435 1.92432C8.2618 1.92432 8.41035 1.7202 8.53972 1.54099C9.24218 0.562529 10.3222 0.0057373 11.5077 0.0057373C12.6931 0.0057373 13.7722 0.562529 14.4718 1.53332C14.6069 1.71924 14.7526 1.92336 15.341 1.92336C17.4551 1.92336 19.1743 3.64261 19.1743 5.7567C19.1743 6.15536 19.275 6.2234 19.4034 6.30965C20.4758 7.0514 21.091 8.21674 21.091 9.4549C21.091 9.91299 21.0048 10.35 20.8342 10.7611C21.4216 10.9815 21.9401 11.3668 22.3311 11.8891C22.9761 12.7487 23.1725 13.8364 22.8697 14.8714ZM3.13951 10.557C3.2133 10.5522 3.28805 10.5493 3.3628 10.5493H19.6516C19.7263 10.5493 19.8011 10.5522 19.8749 10.557C20.0474 10.2139 20.1327 9.85261 20.1327 9.45586C20.1327 8.53203 19.6727 7.66186 18.9012 7.12711C18.6578 6.96324 18.216 6.66711 18.216 5.7567C18.216 4.17161 16.9261 2.8817 15.341 2.8817C14.261 2.8817 13.8815 2.3527 13.6984 2.09874C13.1771 1.37615 12.3798 0.964071 11.5077 0.964071C10.6356 0.964071 9.8373 1.37615 9.32172 2.09299C9.13293 2.35365 8.75055 2.8817 7.67339 2.8817C6.0883 2.8817 4.79839 4.17161 4.79839 5.7567C4.79839 6.66615 4.35659 6.96324 4.14384 7.10507C3.34172 7.65995 2.88268 8.53011 2.88268 9.4549C2.88268 9.85261 2.96797 10.2149 3.13951 10.557ZM21.5644 12.4641C21.1083 11.8565 20.4116 11.5077 19.6516 11.5077H3.3628C2.60284 11.5077 1.90518 11.8565 1.44997 12.4641C0.989011 13.0803 0.848136 13.8594 1.06472 14.6012C1.66559 16.6597 2.79834 18.5907 4.25214 20.0397C5.53439 21.3172 7.3533 22.0493 9.2441 22.0493H13.7713C15.6621 22.0493 17.481 21.3162 18.7642 20.0397C20.218 18.5907 21.3498 16.6597 21.9506 14.6021C22.1672 13.8594 22.0254 13.0793 21.5644 12.4641Z" fill="#3E8914"/>
</g>
<defs>
<clipPath id="clip0_133_512">
<rect width="23" height="23" fill="white"/>
</clipPath>
</defs>
</svg>
