<svg width="18" height="17" viewBox="0 0 18 17" fill="none" xmlns="http://www.w3.org/2000/svg">
<path d="M18 15.6387C18 16.3905 17.3546 17 16.5586 17H1.44149C0.645306 17 0 16.3905 0 15.6387V1.36122C0 0.609512 0.645306 0 1.44149 0H16.5586C17.3546 0 18 0.609512 18 1.36122V15.6387Z" fill="#E61C4F"/>
<path d="M5.60811 9.71014V9.26466L4.90558 9.35451V9.7931C4.79029 9.80024 4.67479 9.80399 4.55925 9.80433C4.4428 9.80433 4.32764 9.79987 4.21319 9.7931V9.35451L3.51027 9.26466V9.71014C3.2656 9.66658 3.02426 9.60771 2.78785 9.53391L2.57251 10.1473C3.21327 10.3482 3.88408 10.4506 4.55925 10.4504C5.25358 10.4504 5.92091 10.343 6.546 10.1473L6.33053 9.53391C6.09412 9.60771 5.85278 9.66658 5.60811 9.71014Z" fill="white"/>
<path d="M4.55938 7.20322C4.94413 7.20322 5.25577 7.49785 5.25577 7.86104C5.25577 8.22424 4.94413 8.51893 4.55938 8.51893C4.17456 8.51893 3.86273 8.2243 3.86273 7.86104C3.86273 7.49785 4.17456 7.20322 4.55938 7.20322ZM4.55938 9.17249C5.32618 9.17249 5.94804 8.58524 5.94804 7.86104C5.94804 7.13673 5.32618 6.54966 4.55938 6.54966C3.79226 6.54966 3.17053 7.13673 3.17053 7.86104C3.17053 8.58524 3.79226 9.17249 4.55938 9.17249Z" fill="white"/>
<path d="M9.95691 10.3677L10.6803 10.3682V6.58829L9.95691 6.58774V10.3677Z" fill="white"/>
<path d="M7.2208 6.78639V7.44074H8.54867V7.54761C8.54867 7.73635 8.57625 8.04836 8.37532 8.32049C8.16101 8.61109 7.61072 8.97325 7.13477 9.21591L7.4466 9.79144C7.99702 9.52011 8.81885 8.98923 9.03761 8.60493C9.25728 8.21965 9.28343 7.95668 9.28343 7.21413L9.28156 6.78719L7.2208 6.78639Z" fill="white"/>
<path d="M15.2123 9.53391C14.9758 9.60771 14.7344 9.66658 14.4897 9.71014V9.26466L13.787 9.35451V9.7931C13.6717 9.8002 13.5562 9.80395 13.4407 9.80433C13.3245 9.80433 13.2092 9.79981 13.0946 9.7931V9.35451L12.3919 9.26466V9.71014C12.1472 9.66657 11.9059 9.6077 11.6696 9.53391L11.454 10.1473C12.0947 10.3482 12.7656 10.4505 13.4407 10.4503C14.1159 10.4506 14.7868 10.3482 15.4276 10.1473L15.2123 9.53391Z" fill="white"/>
<path d="M13.4409 7.20322C13.8256 7.20322 14.1374 7.49785 14.1374 7.86104C14.1374 8.22424 13.8256 8.51893 13.4409 8.51893C13.0562 8.51893 12.7443 8.2243 12.7443 7.86104C12.7443 7.49785 13.0562 7.20322 13.4409 7.20322ZM13.4409 9.17249C14.2078 9.17249 14.8294 8.58524 14.8294 7.86104C14.8294 7.13673 14.2078 6.54966 13.4409 6.54966C12.674 6.54966 12.052 7.13673 12.052 7.86104C12.052 8.58524 12.674 9.17249 13.4409 9.17249Z" fill="white"/>
</svg>
