<svg width="17" height="17" viewBox="0 0 17 17" fill="none" xmlns="http://www.w3.org/2000/svg">
<rect width="16.9791" height="16.9794" rx="1" transform="matrix(1 0 0 -1 0 16.9794)" fill="#F9F9F9"/>
<path d="M4.0413 7.62939e-06H12.9378C15.1605 7.62939e-06 16.9791 1.79195 16.9791 3.98216V12.9972C16.9791 15.1874 15.1605 16.9794 12.9378 16.9794H4.0413C1.81857 16.9794 0 15.1874 0 12.9972V3.98216C0 1.79195 1.81857 7.62939e-06 4.0413 7.62939e-06Z" fill="#F9F9F9"/>
<path fill-rule="evenodd" clip-rule="evenodd" d="M3.27588 10.6573L5.15288 10.6486C5.63427 10.6463 5.55767 10.5965 5.57103 10.0947C5.55885 9.28267 5.12926 8.68394 4.28488 8.58175C3.73258 8.51487 3.14788 8.69471 2.88487 8.99199C2.50345 9.42324 2.52011 9.79178 2.50415 10.4964C2.48131 11.5056 2.67348 12.3514 3.92823 12.4063C4.56992 12.4343 5.26563 12.1571 5.39826 11.6384L4.7448 11.3299C4.44632 11.72 4.01873 11.9229 3.54811 11.6057C3.26692 11.4161 3.25322 11.0773 3.27588 10.6573ZM8.02322 10.9939L8.025 11.1031C8.00148 11.4729 7.68168 11.7659 7.29048 11.7659C6.88407 11.7659 6.55459 11.4496 6.55459 11.0594C6.55459 10.6693 6.88407 10.3529 7.29048 10.3529C7.6739 10.3529 7.98878 10.6344 8.02322 10.9939ZM6.02566 8.84787L6.2302 9.4671C6.38168 9.44079 8.00615 8.65512 8.00778 10.0278L8.00833 10.0605C7.77184 9.87289 7.46851 9.76011 7.13774 9.76011C6.38264 9.76011 5.77043 10.3479 5.77043 11.0727C5.77043 11.7977 6.38264 12.3854 7.13774 12.3854C7.48362 12.3854 7.79946 12.262 8.04025 12.0587L8.04144 12.1308L8.0351 12.3347L8.71515 12.3258C8.75366 11.8043 8.72296 11.1755 8.723 10.6423C8.72308 9.78591 8.7724 9.20441 8.05521 8.76687C7.29992 8.30621 6.55397 8.71401 6.02566 8.84787ZM9.47018 7.75419L10.2279 7.56753V8.64082H11.2034V9.28482H10.2279V11.198C10.2279 11.576 10.3966 11.7954 11.2908 11.6321L11.3828 12.2249C10.6891 12.5511 9.47018 12.4486 9.47018 11.5154V9.28482H8.9208V8.64082H9.47018V7.75419ZM13.1167 8.53818C13.5864 8.54143 14.1618 8.83371 14.4143 9.07948L14.026 9.63946C13.631 9.42536 13.0581 8.99399 12.6147 9.39679C12.484 9.51555 12.434 9.7476 12.6716 9.91941C12.9111 10.0927 13.3922 10.1954 13.7975 10.3977C14.1792 10.5883 14.4936 10.8672 14.4757 11.3768C14.4511 12.0803 13.7375 12.4048 13.1072 12.4106C12.4837 12.4163 11.867 12.112 11.5539 11.5527L12.1885 11.2167C12.4497 11.5689 12.7181 11.8045 13.2114 11.7767C13.4197 11.7649 13.6788 11.5897 13.6945 11.3847C13.7313 10.9021 12.6967 10.7513 12.3874 10.6101C12.0742 10.467 11.6717 10.0205 11.696 9.62078C11.7375 8.93649 12.3815 8.53308 13.1167 8.53818ZM3.27862 10.0772C3.14639 8.95901 4.91731 8.93368 4.76609 10.0843L3.27862 10.0772Z" fill="#8B4A22"/>
<path fill-rule="evenodd" clip-rule="evenodd" d="M3.88916 4.93655L3.65155 5.1354C3.65155 5.1354 3.55625 4.90302 3.29316 4.90302C3.03008 4.90302 2.87394 5.00102 2.87394 5.29123V5.69614C2.87394 5.80505 2.91941 6.09255 3.21741 6.09255C3.51544 6.09255 3.64674 5.86361 3.64674 5.86361L3.89927 6.05275C3.89927 6.05275 3.70117 6.41107 3.22748 6.41107C2.7539 6.41107 2.51025 6.07366 2.51025 5.73697C2.51025 5.44224 2.5204 5.49715 2.5204 5.21041C2.5204 4.92364 2.75219 4.63836 3.13154 4.59943C3.51089 4.56046 3.78719 4.74059 3.88916 4.93655Z" fill="#5E2F27"/>
<path fill-rule="evenodd" clip-rule="evenodd" d="M5.81364 4.62927H6.17229C6.17229 4.62927 6.16722 5.42962 6.16722 5.62967C6.16722 5.82979 6.24638 6.10255 6.52079 6.10255C6.79524 6.10255 6.90466 5.97839 6.90466 5.63966V4.6392H7.26331V6.40126H6.95516V6.24174C6.95516 6.24174 6.74322 6.42096 6.42985 6.42096C6.11656 6.42096 5.81364 6.15257 5.81364 5.78396C5.81364 5.41539 5.8086 4.62927 5.81364 4.62927Z" fill="#5E2F27"/>
<path fill-rule="evenodd" clip-rule="evenodd" d="M12.5199 6.42102H12.1612C12.1612 6.42102 12.1663 5.62075 12.1663 5.4207C12.1663 5.22062 12.0871 4.94782 11.8127 4.94782C11.5383 4.94782 11.4288 5.1344 11.4288 5.45441V6.41113H11.0702V4.64904H11.3784V4.80855C11.3784 4.80855 11.4763 4.61686 11.8656 4.6293C12.255 4.64181 12.5199 4.89783 12.5199 5.26641C12.5199 5.63498 12.5249 6.42102 12.5199 6.42102Z" fill="#C7CE23"/>
<path fill-rule="evenodd" clip-rule="evenodd" d="M4.71139 4.903H4.85521C5.02683 4.903 5.16717 5.07255 5.16717 5.27986V5.71575C5.16717 5.92291 5.02683 6.09253 4.85521 6.09253H4.71139C4.53977 6.09253 4.39944 5.92291 4.39944 5.71575V5.27986C4.39944 5.07255 4.53977 4.903 4.71139 4.903ZM4.68596 4.59444H4.87054C5.21149 4.59444 5.49045 4.87031 5.49045 5.20747V5.7881C5.49045 6.12533 5.21149 6.40112 4.87054 6.40112H4.68596C4.34497 6.40112 4.06604 6.12533 4.06604 5.7881V5.20747C4.06604 4.87031 4.34497 4.59444 4.68596 4.59444Z" fill="#5E2F27"/>
<path fill-rule="evenodd" clip-rule="evenodd" d="M8.28194 4.90303H8.45915C8.63081 4.90303 8.77119 5.07261 8.77119 5.27981V5.71574C8.77119 5.92287 8.63081 6.09256 8.45915 6.09256H8.28194C8.11036 6.09256 7.96995 5.92298 7.96995 5.71574V5.27981C7.96995 5.07261 8.11032 4.90303 8.28194 4.90303ZM7.61182 4.63924V7.10791H8.00079V6.28652C8.00079 6.28652 8.08103 6.411 8.43516 6.411C8.78933 6.411 9.08177 6.11263 9.08177 5.80385V5.21162C9.08177 5.03737 8.93074 4.6338 8.53114 4.61432C8.13154 4.59487 8.01053 4.69856 7.95536 4.8035V4.63417L7.61182 4.63924Z" fill="#E62830"/>
<path fill-rule="evenodd" clip-rule="evenodd" d="M9.97566 5.46698H10.0214C10.1878 5.46698 10.324 5.60113 10.324 5.76514V5.82493C10.324 5.98897 10.1878 6.12309 10.0214 6.12309H9.97566C9.80919 6.12309 9.67304 5.98897 9.67304 5.82493V5.76514C9.67304 5.60113 9.80919 5.46698 9.97566 5.46698ZM9.43528 4.75869L9.58176 4.99763C9.58176 4.99763 9.73839 4.87832 10.0212 4.90321C10.3041 4.92809 10.3697 5.11701 10.3647 5.28127C10.3647 5.28127 10.2334 5.1817 9.95548 5.1817C9.6777 5.1817 9.41003 5.36091 9.35449 5.57994C9.29891 5.79892 9.30395 6.31147 9.74843 6.39611C10.1929 6.48072 10.4 6.24178 10.4 6.24178V6.40611H10.7032V5.15167C10.7032 4.52544 9.81974 4.41912 9.43528 4.75869Z" fill="#FBBD43"/>
<path fill-rule="evenodd" clip-rule="evenodd" d="M13.4651 4.90602H13.5185C13.7128 4.90602 13.8716 5.04707 13.8716 5.21954V5.28255C13.8716 5.45501 13.7128 5.5961 13.5185 5.5961H13.4651C13.2709 5.5961 13.1121 5.45501 13.1121 5.28255V5.21954C13.1121 5.04707 13.2709 4.90602 13.4651 4.90602ZM13.9478 4.75314C14.0199 4.68576 14.1453 4.55871 14.4048 4.6442L14.4096 4.90795C14.4096 4.90795 14.2356 4.84811 14.115 4.96392C14.1569 5.05033 14.1786 5.1449 14.1784 5.24066C14.1784 5.57986 13.9122 5.85734 13.5868 5.85734C13.3793 5.85734 13.311 5.87102 13.1247 6.13076C13.0957 6.18567 13.1475 6.16374 13.1475 6.16374C13.2618 6.09792 13.6385 6.0718 13.8819 6.11883C14.1219 6.16064 14.3648 6.37284 14.3734 6.66275C14.3819 6.95263 13.9304 7.21857 13.9304 7.21857L13.7762 6.96452C13.9247 6.8181 14.1219 6.71948 13.9333 6.5163C13.7447 6.31304 13.2818 6.42366 13.0646 6.47146C12.8474 6.51933 12.7993 6.28648 12.8188 6.11073C12.8384 5.93487 13.0111 5.80834 13.0786 5.76087C12.9136 5.65116 12.8036 5.4587 12.8036 5.24066C12.8036 4.90149 13.0697 4.62409 13.3951 4.62409H13.5868C13.7225 4.62409 13.8477 4.67236 13.9478 4.75314Z" fill="#61BFE7"/>
</svg>
