<svg width="272" height="159" viewBox="0 0 272 159" fill="none" xmlns="http://www.w3.org/2000/svg">
<rect x="0.5" y="0.5" width="271" height="158" rx="10.5" stroke="#3E8914" stroke-linecap="round" stroke-dasharray="10 10"/>
<path d="M123.428 99.3576L143.055 80.8852L152.291 90.1214M123.428 99.3576H146.518C150.344 99.3576 153.445 96.2562 153.445 92.4305V80.8852M123.428 99.3576C119.602 99.3576 116.5 96.2562 116.5 92.4305V69.34C116.5 65.5143 119.602 62.4129 123.428 62.4129H138.436M151.136 73.5619L151.136 67.031M151.136 67.031L151.136 60.5M151.136 67.031L144.605 67.031M151.136 67.031L157.667 67.031M130.355 72.8036C130.355 74.7165 128.804 76.2672 126.891 76.2672C124.978 76.2672 123.428 74.7165 123.428 72.8036C123.428 70.8907 124.978 69.34 126.891 69.34C128.804 69.34 130.355 70.8907 130.355 72.8036Z" stroke="#3E8914" stroke-linecap="round" stroke-linejoin="round"/>
</svg>
