<svg width="17" height="17" viewBox="0 0 17 17" fill="none" xmlns="http://www.w3.org/2000/svg">
<path d="M17 6.93076V16.6538H16.2917V6.93076C16.2917 6.56648 16.1245 6.22927 15.8327 6.00585L9.23738 0.944165C8.80317 0.61042 8.19613 0.611114 7.76192 0.944165L1.16804 6.00515C0.940667 6.17931 0.708333 6.46726 0.708333 7.27699V17H0V7.27699C0 6.41938 0.232333 5.8414 0.731 5.45839L7.32487 0.3981C8.01692 -0.1327 8.98238 -0.1327 9.67442 0.3981L16.269 5.45909C16.7337 5.81504 17 6.35139 17 6.93076ZM14.1667 8.67442V16.6538H13.4583V15.2661H3.54167V16.6538H2.83333V6.93978H3.54167V9.7152H4.44692C4.32508 9.51052 4.25 9.2753 4.25 9.02135C4.25 8.25602 4.88538 7.63363 5.66667 7.63363C6.44796 7.63363 7.08333 8.25602 7.08333 9.02135C7.08333 9.2753 7.00825 9.51052 6.88642 9.7152H7.79167V8.67442C7.79167 7.71828 8.58642 6.93978 9.5625 6.93978H12.3958C13.3726 6.93978 14.1667 7.71828 14.1667 8.67442ZM8.5 9.7152H13.4583V8.67442C13.4583 8.1006 12.9816 7.63363 12.3958 7.63363H9.5625C8.97671 7.63363 8.5 8.1006 8.5 8.67442V9.7152ZM5.66667 9.7152C6.05696 9.7152 6.375 9.40366 6.375 9.02135C6.375 8.63903 6.05696 8.32749 5.66667 8.32749C5.27637 8.32749 4.95833 8.63903 4.95833 9.02135C4.95833 9.40366 5.27637 9.7152 5.66667 9.7152ZM3.54167 14.5722H4.44692C4.32508 14.3675 4.25 14.1323 4.25 13.8783C4.25 13.113 4.88538 12.4906 5.66667 12.4906C6.44796 12.4906 7.08333 13.113 7.08333 13.8783C7.08333 14.1323 7.00825 14.3675 6.88642 14.5722H8.14583V13.5314C8.14583 12.5753 8.94058 11.7968 9.91667 11.7968H13.4583V10.4091H3.54167V14.5722ZM5.66667 14.5722C6.05696 14.5722 6.375 14.2607 6.375 13.8783C6.375 13.496 6.05696 13.1845 5.66667 13.1845C5.27637 13.1845 4.95833 13.496 4.95833 13.8783C4.95833 14.2607 5.27637 14.5722 5.66667 14.5722ZM13.4583 14.5722V12.4906H9.91667C9.33087 12.4906 8.85417 12.9576 8.85417 13.5314V14.5722H13.4583Z" fill="#6AB443"/>
</svg>
