<svg width="24" height="24" viewBox="0 0 24 24" fill="none" xmlns="http://www.w3.org/2000/svg">
<g filter="url(#filter0_d_252_62)">
<path d="M9.38172 6.2567C9.38172 5.7277 9.81105 5.29836 10.3401 5.29836C10.8691 5.29836 11.2984 5.7277 11.2984 6.2567C11.2984 6.7857 10.8691 7.21503 10.3401 7.21503C9.81105 7.21503 9.38172 6.7857 9.38172 6.2567ZM15.1288 10.0766C15.6559 10.0766 16.0833 9.6492 16.0833 9.12211C16.0833 8.59503 15.6559 8.16761 15.1288 8.16761C14.6018 8.16761 14.1743 8.59503 14.1743 9.12211C14.1743 9.6492 14.6018 10.0766 15.1288 10.0766ZM23.6197 15.3714C22.9651 17.6139 21.7797 19.636 20.1898 21.2201C18.7293 22.6749 16.6622 23.5086 14.5213 23.5086H9.9941C7.85222 23.5086 5.78605 22.6749 4.32651 21.2201C2.73664 19.6369 1.55022 17.6139 0.895677 15.3704C0.592844 14.3364 0.789302 13.2497 1.43426 12.39C1.82526 11.8677 2.34372 11.4825 2.93118 11.2621C2.76059 10.8509 2.6753 10.4139 2.6753 9.95586C2.6753 8.7177 3.28959 7.55236 4.31789 6.83936C4.49039 6.72436 4.59101 6.65632 4.59101 6.25765C4.59101 4.14357 6.31026 2.42432 8.42435 2.42432C9.0118 2.42432 9.16035 2.2202 9.28972 2.04099C9.99218 1.06253 11.0722 0.505737 12.2577 0.505737C13.4431 0.505737 14.5222 1.06253 15.2218 2.03332C15.3569 2.21924 15.5026 2.42336 16.091 2.42336C18.2051 2.42336 19.9243 4.14261 19.9243 6.2567C19.9243 6.65536 20.025 6.7234 20.1534 6.80965C21.2258 7.5514 21.841 8.71674 21.841 9.9549C21.841 10.413 21.7548 10.85 21.5842 11.2611C22.1716 11.4815 22.6901 11.8668 23.0811 12.3891C23.7261 13.2487 23.9225 14.3364 23.6197 15.3714ZM3.88951 11.057C3.9633 11.0522 4.03805 11.0493 4.1128 11.0493H20.4016C20.4763 11.0493 20.5511 11.0522 20.6249 11.057C20.7974 10.7139 20.8827 10.3526 20.8827 9.95586C20.8827 9.03203 20.4227 8.16186 19.6512 7.62711C19.4078 7.46324 18.966 7.16711 18.966 6.2567C18.966 4.67161 17.6761 3.3817 16.091 3.3817C15.011 3.3817 14.6315 2.8527 14.4484 2.59874C13.9271 1.87615 13.1298 1.46407 12.2577 1.46407C11.3856 1.46407 10.5873 1.87615 10.0717 2.59299C9.88293 2.85365 9.50055 3.3817 8.42339 3.3817C6.8383 3.3817 5.54839 4.67161 5.54839 6.2567C5.54839 7.16615 5.10659 7.46324 4.89384 7.60507C4.09172 8.15995 3.63268 9.03011 3.63268 9.9549C3.63268 10.3526 3.71797 10.7149 3.88951 11.057ZM22.3144 12.9641C21.8583 12.3565 21.1616 12.0077 20.4016 12.0077H4.1128C3.35284 12.0077 2.65518 12.3565 2.19997 12.9641C1.73901 13.5803 1.59814 14.3594 1.81472 15.1012C2.41559 17.1597 3.54834 19.0907 5.00214 20.5397C6.28439 21.8172 8.1033 22.5493 9.9941 22.5493H14.5213C16.4121 22.5493 18.231 21.8162 19.5142 20.5397C20.968 19.0907 22.0998 17.1597 22.7006 15.1021C22.9172 14.3594 22.7754 13.5793 22.3144 12.9641Z" fill="#9A9A9A"/>
</g>
<defs>
<filter id="filter0_d_252_62" x="-3.24353" y="0.505737" width="31.0024" height="31.0029" filterUnits="userSpaceOnUse" color-interpolation-filters="sRGB">
<feFlood flood-opacity="0" result="BackgroundImageFix"/>
<feColorMatrix in="SourceAlpha" type="matrix" values="0 0 0 0 0 0 0 0 0 0 0 0 0 0 0 0 0 0 127 0" result="hardAlpha"/>
<feOffset dy="4"/>
<feGaussianBlur stdDeviation="2"/>
<feComposite in2="hardAlpha" operator="out"/>
<feColorMatrix type="matrix" values="0 0 0 0 0 0 0 0 0 0 0 0 0 0 0 0 0 0 0.25 0"/>
<feBlend mode="normal" in2="BackgroundImageFix" result="effect1_dropShadow_252_62"/>
<feBlend mode="normal" in="SourceGraphic" in2="effect1_dropShadow_252_62" result="shape"/>
</filter>
</defs>
</svg>
