<svg width="16" height="16" viewBox="0 0 16 16" fill="none" xmlns="http://www.w3.org/2000/svg">
<path d="M3.1875 13.25C3.52377 12.8734 5.09868 11.1403 5.56021 11.1403H10.4401C11.1089 11.1403 12.4741 12.5769 12.8125 13.0833M15 8C15 11.866 11.866 15 8 15C4.13401 15 1 11.866 1 8C1 4.13401 4.13401 1 8 1C11.866 1 15 4.13401 15 8ZM10.5075 5.61414C10.5075 4.27866 9.3801 3.1875 8.00021 3.1875C6.62035 3.1875 5.49293 4.27866 5.49293 5.61414C5.49293 6.94961 6.62035 8.04077 8.00021 8.04077C9.38007 8.04077 10.5075 6.94961 10.5075 5.61414Z" stroke="white" stroke-width="0.5"/>
</svg>
