<svg width="15" height="13" viewBox="0 0 15 13" fill="none" xmlns="http://www.w3.org/2000/svg">
<path d="M14.9994 4.13872C14.9994 3.46807 14.605 2.85351 13.9188 2.48158L9.07125 0.390535C8.11687 -0.12839 6.8825 -0.1278 5.9525 0.378137L1.08 2.48217C1.07125 2.48631 1.0625 2.49044 1.05437 2.49457C0.39375 2.85351 0 3.46807 0 4.13872C0 4.80937 0.394375 5.42393 1.08062 5.79586L2.5 6.40806V10.0582C2.5 11.1976 3.24687 12.2018 4.35875 12.5572C5.27812 12.8512 6.335 13 7.5 13C8.665 13 9.7225 12.8512 10.6413 12.5572C11.7525 12.2012 12.5 11.197 12.5 10.0582V6.40747L13.945 5.78346C14.1044 5.69668 14.2481 5.59395 14.375 5.4806V11.5247C14.375 11.6876 14.515 11.8199 14.6875 11.8199C14.86 11.8199 15 11.6876 15 11.5247V4.14521C15 4.14521 15 4.14403 15 4.14344C15 4.14226 15 4.14049 15 4.13931L14.9994 4.13872ZM11.8744 10.0577C11.8744 10.9438 11.2981 11.7231 10.4406 11.9976C9.58625 12.2709 8.59625 12.4091 7.49937 12.4091C6.4025 12.4091 5.4125 12.2709 4.55813 11.9976C3.70062 11.7231 3.12438 10.9438 3.12438 10.0577V6.67726L5.92688 7.88573C6.4075 8.14666 6.95812 8.27654 7.50562 8.27654C8.04625 8.27654 8.58375 8.14962 9.04562 7.89812L11.8738 6.67667L11.8744 10.0577ZM13.6588 5.25804L8.76 7.37388C7.99312 7.79068 7.00312 7.79068 6.2125 7.36149L1.365 5.27103C0.894375 5.01481 0.62375 4.60215 0.62375 4.13872C0.62375 3.67942 0.889375 3.26912 1.35312 3.01291L6.2375 0.902966C7.00437 0.485583 7.99437 0.486763 8.785 0.915363L13.6325 3.00641C14.1031 3.26263 14.3738 3.67529 14.3738 4.13872C14.3738 4.60215 14.1038 5.01481 13.6588 5.25804Z" fill="#A6A6A6"/>
</svg>
